<?xml version="1.0" encoding="UTF-8" standalone="no"?>
<svg width="3523px" height="3520px" viewBox="0 0 3523 3520" version="1.1" xmlns="http://www.w3.org/2000/svg" xmlns:xlink="http://www.w3.org/1999/xlink" xmlns:sketch="http://www.bohemiancoding.com/sketch/ns">
    <!-- Generator: Sketch 3.1.1 (8761) - http://www.bohemiancoding.com/sketch -->
    <title>linkedin</title>
    <desc>Created with Sketch.</desc>
    <defs></defs>
    <g id="Page-1" stroke="none" stroke-width="1" fill="none" fill-rule="evenodd" sketch:type="MSPage">
        <g id="linkedin" sketch:type="MSArtboardGroup" fill="#FFFFFF">
            <g sketch:type="MSLayerGroup" transform="translate(11.000000, 10.000000)" id="Rectangle-1">
                <path d="M1934.71333,1909.18879 L1934.71333,2920 L1394.71333,2920 L1394.71333,1350 L1934.71333,1350 L1934.71333,1520.52417 C2007.8629,1443.10598 2150.47687,1354.77694 2420.44535,1354.77694 C2901.0194,1354.77694 2945.28664,1715.62475 2945.28664,1715.62475 L2945.28667,1909.18879 L2944.71333,1909.19538 L2944.71333,2920 L2474.71333,2920 L2474.71333,1903.87319 C2464.35433,1858.34187 2412.16456,1683.03824 2222.77381,1683.84646 C2005.12698,1684.77526 1934.71333,1909.18879 1934.71333,1909.18879 Z M260.008885,0 C116.409943,0 0,116.404446 0,260.008885 L0,3239.99111 C0,3383.59006 116.404446,3500 260.008885,3500 L3239.99111,3500 C3383.59006,3500 3500,3383.59555 3500,3239.99111 L3500,260.008885 C3500,116.409943 3383.59555,0 3239.99111,0 L260.008885,0 Z M580,1350 L580,2920 L1120,2920 L1120,1350 L580,1350 Z M844.713326,1160 C1004.8759,1160 1134.71333,1030.16258 1134.71333,870 C1134.71333,709.837423 1004.8759,580 844.713326,580 C684.550748,580 554.713326,709.837423 554.713326,870 C554.713326,1030.16258 684.550748,1160 844.713326,1160 Z" sketch:type="MSShapeGroup"></path>
            </g>
        </g>
    </g>
</svg>